<svg id="Layer_1" data-name="Layer 1" xmlns="http://www.w3.org/2000/svg" xmlns:xlink="http://www.w3.org/1999/xlink" viewBox="0 0 1000 296"><defs><style>.cls-1{fill:none;}.cls-2{clip-path:url(#clip-path);}.cls-3{fill:#666;}.cls-4{fill:#8479fb;}</style><clipPath id="clip-path"><rect class="cls-1" width="1000" height="296"/></clipPath></defs><g class="cls-2"><path class="cls-3" d="M653.45,293.23l-8-25.88-8,25.87H626.7l-11.56-38h10.39l7.07,25.57L641,255.23h8.88l8.34,25.57,7.08-25.57h10.39l-11.57,38Z"/><path class="cls-3" d="M707.88,294.18a22.43,22.43,0,0,1-8.06-1.42,18.86,18.86,0,0,1-6.45-4,18.4,18.4,0,0,1-4.25-6.29,21.44,21.44,0,0,1-1.53-8.26,20.78,20.78,0,0,1,1.46-7.75,18.75,18.75,0,0,1,10.27-10.58,19.67,19.67,0,0,1,7.94-1.57,19.18,19.18,0,0,1,7.75,1.53,17.63,17.63,0,0,1,6,4.29,19.47,19.47,0,0,1,3.89,6.61,25.05,25.05,0,0,1,1.37,8.5v2.2H698.05a10,10,0,0,0,3.27,6.22,10.86,10.86,0,0,0,7.67,2.6,14,14,0,0,0,2.59-.28,19.14,19.14,0,0,0,2.79-.75A13.61,13.61,0,0,0,717,284a12.23,12.23,0,0,0,2.16-1.57l4.41,6.45a18.59,18.59,0,0,1-7,3.93A28.25,28.25,0,0,1,707.88,294.18Zm8.74-23.52a9.75,9.75,0,0,0-.63-2.83,8.48,8.48,0,0,0-1.65-2.72,8.92,8.92,0,0,0-2.87-2,9.91,9.91,0,0,0-4.21-.83,9.47,9.47,0,0,0-4,.79,8.61,8.61,0,0,0-2.8,2,9.74,9.74,0,0,0-1.73,2.72,10.17,10.17,0,0,0-.78,2.91Z"/><path class="cls-3" d="M743,293.24V240.77h10v52.47Z"/><path class="cls-3" d="M772.31,293.25V240.78h10v52.47Z"/><path class="cls-3" d="M827.3,293.26v-23q0-4-1.89-5.55a7.88,7.88,0,0,0-5.11-1.54,9.56,9.56,0,0,0-5.19,1.38,12.16,12.16,0,0,0-3.47,3.11v25.56h-10v-38h10v4.95a17.54,17.54,0,0,1,5.19-4,16.68,16.68,0,0,1,8.1-1.85q6.3,0,9.32,3.27t3,8.85v26.83Z"/><path class="cls-3" d="M874.49,294.21a22.65,22.65,0,0,1-8.06-1.42,18.86,18.86,0,0,1-6.45-4,18.35,18.35,0,0,1-4.25-6.3,21.4,21.4,0,0,1-1.53-8.26,20.81,20.81,0,0,1,1.46-7.75,18.78,18.78,0,0,1,10.27-10.57,19.68,19.68,0,0,1,7.94-1.58,19.15,19.15,0,0,1,7.75,1.54,17.63,17.63,0,0,1,6,4.29,19.37,19.37,0,0,1,3.89,6.61,24.75,24.75,0,0,1,1.37,8.49v2.2H864.66a10,10,0,0,0,3.27,6.21,10.81,10.81,0,0,0,7.67,2.6,13.91,13.91,0,0,0,2.59-.27,21,21,0,0,0,2.8-.75,15.21,15.21,0,0,0,2.59-1.18,12.37,12.37,0,0,0,2.16-1.57l4.41,6.45a18.59,18.59,0,0,1-7,3.93A28.25,28.25,0,0,1,874.49,294.21Zm8.74-23.52a9.68,9.68,0,0,0-.63-2.83,8.48,8.48,0,0,0-1.65-2.72,8.92,8.92,0,0,0-2.87-2,9.76,9.76,0,0,0-4.21-.83,9.63,9.63,0,0,0-4,.78,8.63,8.63,0,0,0-2.79,2,9.5,9.5,0,0,0-1.74,2.71,10.35,10.35,0,0,0-.78,2.91Z"/><path class="cls-3" d="M923.27,294.22a28.84,28.84,0,0,1-9.48-1.58,21.08,21.08,0,0,1-7.51-4.33l4.32-7a16.68,16.68,0,0,0,2.56,1.89,24.32,24.32,0,0,0,3.3,1.69,22.5,22.5,0,0,0,3.62,1.18,15.92,15.92,0,0,0,3.66.44,8.2,8.2,0,0,0,4.84-1.14,3.53,3.53,0,0,0,1.53-2.95,2.51,2.51,0,0,0-1.69-2.36,18.87,18.87,0,0,0-4.17-1.3l-5.43-1.14a22.11,22.11,0,0,1-5.42-1.89,12,12,0,0,1-4.17-3.47,9.54,9.54,0,0,1-1.69-6,10.52,10.52,0,0,1,1-4.53,11,11,0,0,1,3-3.81,15.58,15.58,0,0,1,4.88-2.64,20.65,20.65,0,0,1,6.65-1,24.28,24.28,0,0,1,8.69,1.46,24,24,0,0,1,6.64,3.74l-4,6.84a14.35,14.35,0,0,0-4.72-3.11,16.3,16.3,0,0,0-6.53-1.3,7.65,7.65,0,0,0-4.36,1.1,3.2,3.2,0,0,0-1.62,2.68,2.28,2.28,0,0,0,1.65,2.12,22.2,22.2,0,0,0,4.17,1.22c1.68.34,3.49.74,5.43,1.18a22.31,22.31,0,0,1,5.43,2,12,12,0,0,1,4.17,3.62,10.26,10.26,0,0,1,1.65,6.13,10.85,10.85,0,0,1-1.1,4.84,11,11,0,0,1-3.19,3.86,16.21,16.21,0,0,1-5.15,2.55A23.8,23.8,0,0,1,923.27,294.22Z"/><path class="cls-3" d="M970.23,294.22a28.57,28.57,0,0,1-9.48-1.57,21.08,21.08,0,0,1-7.51-4.33l4.33-7a16.56,16.56,0,0,0,2.55,1.89,24.45,24.45,0,0,0,3.31,1.69,22.39,22.39,0,0,0,3.61,1.18,16,16,0,0,0,3.66.43,8.18,8.18,0,0,0,4.84-1.14,3.52,3.52,0,0,0,1.53-2.95,2.52,2.52,0,0,0-1.69-2.36,19.62,19.62,0,0,0-4.17-1.3l-5.42-1.14a22.45,22.45,0,0,1-5.43-1.88,12.27,12.27,0,0,1-4.17-3.47,9.57,9.57,0,0,1-1.69-6,10.47,10.47,0,0,1,1-4.52,11.22,11.22,0,0,1,3-3.82,15.56,15.56,0,0,1,4.88-2.63,20.65,20.65,0,0,1,6.65-1,23.81,23.81,0,0,1,15.34,5.19l-4,6.85a14.09,14.09,0,0,0-4.72-3.11,16.12,16.12,0,0,0-6.52-1.3,7.66,7.66,0,0,0-4.37,1.1,3.18,3.18,0,0,0-1.61,2.67,2.29,2.29,0,0,0,1.65,2.13,21.76,21.76,0,0,0,4.17,1.22q2.5.51,5.42,1.18a21.91,21.91,0,0,1,5.43,2A12,12,0,0,1,985,275.9a10.24,10.24,0,0,1,1.65,6.13,10.73,10.73,0,0,1-4.29,8.69,15.91,15.91,0,0,1-5.15,2.56A23.82,23.82,0,0,1,970.23,294.22Z"/><path class="cls-4" d="M411.29,132c.38-1-1.49-4.72-1.79-5.69q-1.8-5.89-3.39-11.84a281.11,281.11,0,0,1-6.72-32.28c-1.44-9.87-7.76-18-18-20-5.7-1.08-13.36,1.41-17.23,5.66-6.27,6.88-8.44,16.73-7.86,26,.87,13.87,6.33,28.4,10.89,41.43a222.16,222.16,0,0,0,22.05,45.94c3.53,5.57,6.39,12.54,14.73,13.31,1.37.13,2.59,2.15,3.82,3.36,5,4.94,11.33,4.79,17.62,4.66,4.68-.11,8-3.76,9.46-7.67,10.28-26.92,19.22-54.37,30.73-80.81a329.77,329.77,0,0,1,19.77-38.91c5.23-8.67,6.87-22.61-1.66-30.26l-.38-.32c-10.2-8.06-20.41-8.14-30.45-2-7.94,4.88-11.87,11.57-14.94,20C429.73,85.42,420.67,107.81,411.29,132Z"/><path class="cls-4" d="M782,101.27c-2.11-6.46-4.29-12.89-6.92-19.1-3.36-7.89-7.82-15.65-16.48-18.43-12.08-3.88-26.22,9.36-24.23,22,1.51,9.63,4.46,16.94,7.25,26.28,4.71,15.74,9.89,25.28,15.56,37.33,4.05,8.61,7.93,17.89,14.45,25a42.58,42.58,0,0,0,22.57,12.83c4.74,1,9.91,1,14.16-1.27,8.38-4.55,11.46-16.77,14.76-25,4.43-11,8.67-22.11,12.57-33.33,4.53-13,9.8-26.07,13.2-39.41,3.87-15.17-10.64-26.06-24.62-20.44-6.22,2.51-11.15,7.53-14.8,13.15-5.79,8.94-12.89,36.4-13.61,39.93s-1.91,7.19-2.8,10.7a19,19,0,0,1-2.33-4.76c-1-2.72-2-5.45-3-8.18C785.7,112.86,783.86,107.06,782,101.27Z"/><path class="cls-4" d="M644.69,146.14c-.13-3.91-.12-7.77-.08-11.44.21-18.76,1.1-37.54,1.89-56.26.44-10.32.83-20.64,1.29-31q.38-8.5.8-17c.33-6.2-.06-12.23,2.79-18a20.35,20.35,0,0,1,9.2-9.34c4.3-2.06,9.23-2.34,14-2.1,6.21.31,11.08,1.67,15.3,6.24,3.46,3.75,4.69,9.05,5,14.14.91,13.68,0,27.24-.41,40.93-.67,22.82,0,21.15-1.78,44C692.5,109,691,136.33,691,138.93c0,10.23,2,10.21,12.42,10.21a80.74,80.74,0,0,1,15.21,1.47c11.94,2.26,19.79,16.52,14.56,27.47-4.54,9.51-19.1,15.59-28.71,18-18.49,4.75-41.9,1.49-52.23-16.42C646.64,170,645.06,157.78,644.69,146.14Z"/><path class="cls-4" d="M618.94,120.73c1,23.74-11.54,48-33.56,58-18.38,8.36-41,7.18-59.67.39-20.6-7.5-37.84-32.23-36.11-55.41A67.39,67.39,0,0,1,497.89,96a51.44,51.44,0,0,1,14.36-16.68,93,93,0,0,1,24-12.13A61.36,61.36,0,0,1,568,64.77c10.73,2.2,20.28,8,28.86,14.59,9.4,7.23,17,16.91,20.21,28.86A58.18,58.18,0,0,1,618.94,120.73Zm-33.36-1.14c-.27-10.81-4.57-21.45-15.8-25.84-15.42-6-33.58,2.09-40.79,16.68a34.62,34.62,0,0,0-3.36,19.82c.89,6.49,4,14.36,9.53,18.27,4.25,3,9.78,4.28,14.85,5.15,5.75,1,13.59-.93,19.27-2.27A19.52,19.52,0,0,0,582,141.23C584.28,136.26,585.78,127.78,585.58,119.59Z"/><path class="cls-4" d="M589.32,123.41a23.07,23.07,0,0,1-1.88,11.07c-1.66,3.37-4.83,5.31-8.42,6.16a27.4,27.4,0,0,1-19.76-2.88c-3.31-2-4.21-6.14-4.66-9.87-1.65-13.78,13.3-25,26.19-20C587,110.35,589.07,117.32,589.32,123.41Z"/><path class="cls-4" d="M213.44,132.73c-.74-16.54,9.22-31.43,23.05-39.56q-1.08-12-3.12-24c-1.28-7.54-1.59-17-10-19.92-7-2.38-17-3-23.78.38-5.69,2.83-11.06,9.86-10.91,16.43.31,13.2.47,26.41,1.2,39.6.49,9,1.49,29.16,2.08,38.11C193.77,143.75,213.46,133.24,213.44,132.73Z"/><path class="cls-4" d="M254.81,65.22a78.38,78.38,0,0,1,16.45-.58c24.49,1.77,49.86,15.6,58.9,39.37a67.4,67.4,0,0,1,4.11,27.56c-.8,14.68-3.33,28.29-23,29-17.8.65-23.37-18.58-26.14-32.25-1.49-7.31-3.31-13.63-9.46-18.36-7-5.37-20-7-27.85-2.2-15.72,9.65-6.72,35.5-8.55,50.3-1.35,11-8.79,18.44-19.87,18.65-15.68.29-24-4.36-26-18.7-1.31-9.43-2.51-19.52-.49-28.59,2.55-11.5,7.44-22.79,13.07-33.22C215.65,78.39,235,68,254.81,65.22Z"/><path class="cls-4" d="M978.34,109.43c-5.66,8-14.51,12.72-23.57,16.86-13.25,6.06-27.91,9.21-42.21,11.47a52.17,52.17,0,0,0-5.78,1.14c2.5,7.84,5.06,9.68,8,12.53,4.39,4.26,11.59,6,17.45,7.11a33.71,33.71,0,0,0,21.57-3.23c7.53-4,14.83-15.79,23.35-17.76,7.37-1.7,17.13,1.65,20.3,8.85a19.14,19.14,0,0,1,1.39,6.7c.68,13.86-10.31,22.89-20.22,30.56a70.41,70.41,0,0,1-45,14.73,71.13,71.13,0,0,1-35.32-10.77c-11.39-7.12-19.62-18-26.39-29.43-6.4-10.78-8.24-22.21-8.47-34.57A63.33,63.33,0,0,1,869.69,95c6-12.45,14.16-22.64,25.79-30.22,20.75-13.53,48.38-15.5,70.42-3.8,5.68,3,11.17,7,14.55,12.64C986.85,84.16,985.36,99.45,978.34,109.43Zm-49.45-27.7c-8.1.31-16.31,3.33-21.79,9.32-5.68,6.2-7.79,15.8-5.89,24.25,3.68-.73,6.83-1,10.48-1.78,9-1.81,17.29-3.9,25.56-8.35,4.76-2.56,9.76-7.07,9.14-13.06s-7.12-9.7-12.55-10.24A35.47,35.47,0,0,0,928.89,81.73Z"/><path class="cls-4" d="M163.67,148.13a17.36,17.36,0,0,0-11-17,22.11,22.11,0,0,0-15.58-1c-5.66,1.8-10.23,6.52-14.52,10.42-6,5.41-10.82,10.29-18.73,12.65-13.6,4.05-32.27,1.06-43-8.76-5.25-4.8-8.23-10.93-10.13-17.71,0,0,16.67-2.55,29.84-5.8,11.12-2.75,21.89-5.55,32.16-9.89,12.14-5.12,25.36-12.35,31.52-24.55,5.56-11,6.61-25.52.48-36.55C141.48,44.08,136,39,128,34.29a81.71,81.71,0,0,0-41-10.79A86.45,86.45,0,0,0,42.52,35.69C28.9,43.86,18.23,55.46,9.89,71.16A76.62,76.62,0,0,0,1,105.51c-.33,17.61,2.33,30.64,8.65,42.26,9.49,17.46,19.24,29.21,30.69,37a86.41,86.41,0,0,0,33.4,13.57A84.38,84.38,0,0,0,111,196.43a86.23,86.23,0,0,0,26.81-12.82c7.65-5.47,15.65-11.33,20.85-19.32A31,31,0,0,0,163.67,148.13ZM67,58.48c7.83-3.89,16.86-4,25.35-2.13,6.69,1.52,13.47,6.71,14,14,.63,9.54-8.52,15.55-12.73,17.15-10.11,3.84-17.89,6.55-27.27,8-1.56.23-19.75,3.11-21.83,3.44C44.33,99,37.65,73.05,67,58.48Z"/><path class="cls-4" d="M300.1,192.7a120.45,120.45,0,0,0,17.18,23.12,126,126,0,0,0,22.2,18.7,134.62,134.62,0,0,0,25.9,13.39,127.63,127.63,0,0,0,28.17,7.3,121,121,0,0,0,28.89.69,115.16,115.16,0,0,0,28-6.37A112,112,0,0,0,476,236.29,130.36,130.36,0,0,0,498.14,217l.17-.19a16.54,16.54,0,0,1,24.84,21.82,156.88,156.88,0,0,1-27.07,25.65,147,147,0,0,1-33,18.32,150.89,150.89,0,0,1-74.41,8.94,164.85,164.85,0,0,1-36.39-9.11,163.28,163.28,0,0,1-62-41.35,152,152,0,0,1-22.1-30.68,18.27,18.27,0,0,1,31.91-17.8Z"/></g></svg>